<?xml version="1.0" standalone="no"?>
<!DOCTYPE svg PUBLIC "-//W3C//DTD SVG 20010904//EN"
 "http://www.w3.org/TR/2001/REC-SVG-20010904/DTD/svg10.dtd">
<svg version="1.0" xmlns="http://www.w3.org/2000/svg"
 width="1600.000000pt" height="1200.000000pt" viewBox="0 0 1600.000000 1200.000000"
 preserveAspectRatio="xMidYMid meet">

<g transform="translate(0.000000,1200.000000) scale(0.100000,-0.100000)"
fill="#000000" stroke="none">
<path d="M8189 11001 c-32 -25 -124 -29 -771 -37 -354 -5 -518 -3 -518 4 0 5
-14 15 -31 21 -29 10 -34 8 -63 -23 -24 -27 -84 -57 -276 -141 -303 -131 -341
-148 -337 -152 2 -2 134 53 292 122 159 69 293 125 299 125 6 0 16 -8 22 -18
9 -14 -4 -93 -61 -362 -40 -190 -92 -441 -116 -559 -32 -155 -48 -215 -59
-218 -8 -2 -28 -11 -43 -19 -26 -13 -31 -12 -60 8 -56 39 -378 269 -525 375
-79 57 -141 99 -137 93 4 -6 39 -34 80 -63 99 -70 269 -193 450 -324 l150
-109 0 -47 c0 -32 7 -53 22 -69 l21 -23 -109 -239 c-60 -132 -112 -242 -114
-245 -3 -3 -89 10 -191 28 -102 18 -188 31 -190 29 -2 -3 78 -19 179 -37 100
-19 185 -35 189 -37 4 -3 -6 -32 -22 -67 l-28 -62 -378 -5 -377 -5 -77 -105
c-55 -75 -83 -105 -98 -105 -24 0 -75 -63 -166 -205 -32 -50 -63 -89 -69 -87
-7 2 -34 47 -60 100 l-49 97 -485 0 -485 0 27 -47 c15 -27 33 -55 40 -63 7 -8
38 -64 70 -125 56 -108 186 -340 281 -504 27 -46 52 -82 55 -80 3 2 14 -3 24
-11 22 -18 17 -8 -130 265 -56 105 -107 199 -112 210 -8 15 -7 23 2 32 11 10
16 7 28 -15 8 -15 66 -117 129 -227 63 -110 143 -250 177 -312 l62 -111 -120
-174 c-66 -95 -235 -342 -374 -548 -140 -206 -276 -404 -301 -440 -25 -36 -50
-73 -56 -82 -10 -17 10 -18 368 -18 l378 0 74 108 c184 268 362 522 369 526 4
3 41 -53 81 -125 41 -72 79 -133 84 -135 6 -2 178 -3 382 -2 l371 3 -74 135
c-98 177 -209 377 -322 576 -50 89 -91 167 -91 174 0 14 370 553 450 657 17
22 30 21 30 -3 0 -7 -62 -107 -138 -221 -76 -114 -148 -225 -160 -245 -22 -36
-22 -37 -3 -35 11 1 19 3 17 5 -2 1 8 15 23 31 14 15 73 96 131 180 58 84 108
155 112 157 8 5 -5 -27 -56 -140 -20 -44 -35 -81 -33 -82 8 -9 108 226 101
237 -4 7 -3 10 3 6 6 -4 18 9 26 31 9 20 59 100 111 177 239 351 233 341 201
329 -25 -10 -17 9 50 114 l65 102 -50 0 -49 0 26 58 c14 31 29 61 33 65 8 9
280 -38 291 -51 3 -4 24 -276 45 -604 21 -329 43 -598 47 -598 5 0 6 26 3 58
-4 31 -13 158 -21 282 -8 124 -25 366 -36 538 -12 172 -18 316 -15 319 5 5
359 -54 362 -60 0 -1 127 -212 282 -470 l282 -468 -20 -89 c-22 -97 -25 -125
-11 -100 4 8 14 44 21 80 7 36 16 69 20 73 4 5 31 -33 61 -82 29 -50 57 -91
62 -91 10 0 -3 23 -65 122 -26 43 -48 86 -48 96 0 10 29 149 65 308 36 159 70
312 76 339 14 68 26 95 43 95 8 0 21 9 29 20 13 19 21 18 418 -55 222 -41 410
-75 417 -75 6 0 12 -9 12 -19 0 -29 48 -81 75 -81 13 0 26 -4 29 -8 3 -5 39
-166 81 -358 79 -365 82 -380 90 -372 3 3 -30 169 -74 369 -65 297 -77 365
-66 372 19 10 42 34 47 48 5 14 718 -115 729 -132 4 -6 8 -107 8 -223 l2 -212
-49 -75 -49 -75 -114 -26 c-63 -15 -100 -26 -84 -27 17 0 57 6 90 14 33 8 68
15 78 15 17 0 17 -2 -3 -30 -12 -17 -20 -35 -18 -42 2 -6 16 10 31 35 23 39
34 48 65 53 20 3 42 5 47 5 12 -1 12 -1 16 -186 l3 -150 6 174 5 174 220 48
c121 27 438 96 705 153 470 102 485 104 498 85 7 -10 21 -19 31 -19 26 0 28
-14 30 -190 1 -85 4 -157 7 -159 2 -2 4 77 4 177 0 112 4 182 10 182 14 0 23
44 15 70 -4 12 -17 25 -29 30 -24 9 -6 -30 -352 763 l-199 459 -462 445 c-393
378 -461 448 -453 464 19 34 12 88 -15 114 -33 34 -99 35 -134 1 l-26 -24
-565 223 c-464 182 -567 227 -577 246 -14 26 -41 49 -59 49 -6 0 -22 -8 -35
-19z m-9 -73 c14 -30 13 -41 -4 -123 -11 -49 -21 -92 -22 -94 -3 -4 -1210 207
-1234 216 -42 15 52 21 355 22 181 1 331 3 333 5 2 3 128 5 280 5 l277 1 15
-32z m510 -151 c146 -57 366 -144 490 -192 207 -81 285 -117 220 -102 -14 4
-268 49 -565 102 -297 53 -541 98 -543 100 -2 2 -14 50 -27 106 l-23 104 21
20 22 20 70 -26 c39 -15 189 -74 335 -132z m-1155 27 c330 -59 603 -110 607
-113 4 -3 -34 -186 -83 -406 -49 -220 -98 -435 -107 -479 -17 -73 -20 -80 -52
-95 -19 -9 -44 -31 -55 -48 -16 -26 -25 -32 -45 -28 -14 2 -99 7 -190 10 -91
3 -302 13 -470 21 -168 7 -337 14 -377 14 -71 0 -71 0 -119 46 l-47 46 82 397
c163 783 144 706 173 709 15 2 32 10 38 18 7 8 20 14 29 14 9 0 286 -48 616
-106z m714 -5 c12 -56 20 -104 17 -106 -7 -7 -96 9 -96 17 0 25 43 190 50 190
4 0 17 -46 29 -101z m1 -125 c17 -3 30 -9 30 -12 0 -4 52 -243 114 -532 63
-288 114 -525 113 -526 -1 -1 -109 4 -240 10 l-238 11 -16 34 c-9 18 -27 38
-40 44 -13 5 -23 15 -23 21 0 6 45 211 101 456 55 245 103 460 106 478 6 36
-1 34 93 16z m1175 -233 c8 -33 43 -71 65 -71 22 0 29 -103 31 -468 l1 -272
-26 -21 c-14 -11 -26 -27 -26 -35 0 -13 -19 -14 -132 -9 -147 7 -457 21 -674
31 l-140 6 -115 529 c-63 291 -114 531 -112 532 1 2 254 -42 562 -97 557 -99
560 -100 566 -125z m609 -495 c245 -236 446 -431 446 -434 0 -2 -28 -1 -62 2
-35 3 -135 8 -223 11 -88 3 -185 8 -215 10 -30 2 -130 7 -222 11 -153 6 -168
8 -168 24 0 10 -11 27 -25 38 l-24 19 -7 371 c-7 359 -7 370 12 375 10 3 24 4
30 3 7 0 213 -194 458 -430z m-2834 -296 c593 -27 630 -30 630 -46 0 -7 13
-28 29 -47 l30 -33 -14 -60 c-8 -32 -35 -153 -61 -269 -70 -317 -68 -310 -90
-314 -10 -1 -27 -10 -37 -19 -16 -14 -42 -11 -310 37 -160 29 -313 57 -339 63
l-46 9 -140 232 c-77 128 -161 266 -185 307 l-45 74 24 29 c13 16 24 35 24 43
0 18 12 18 530 -6z m1229 -59 l84 -6 33 -150 c18 -82 59 -270 90 -417 l57
-268 -25 -23 c-14 -13 -29 -30 -34 -39 -8 -14 -53 -8 -412 57 -222 40 -410 76
-418 79 -8 3 -14 11 -14 17 0 7 -7 20 -15 29 -14 16 -10 43 45 286 34 148 66
292 72 320 9 45 13 52 35 52 37 0 71 22 85 54 l13 29 160 -7 c88 -4 198 -9
244 -13z m586 -26 c429 -19 451 -21 467 -34 7 -7 21 -17 30 -24 15 -11 17 -59
24 -504 l7 -493 -24 1 c-13 0 -174 28 -358 62 l-333 62 -13 38 c-15 43 -36 63
-77 72 -15 4 -29 14 -32 23 -7 25 -176 806 -176 814 0 4 33 6 73 3 39 -3 225
-12 412 -20z m-2451 7 c6 -10 40 -521 35 -526 -4 -5 -271 43 -277 49 -8 8 214
485 225 485 6 0 14 -4 17 -8z m228 -293 c97 -162 177 -297 178 -300 0 -3 -77
9 -172 26 -115 21 -174 36 -179 45 -10 19 -41 509 -33 522 3 5 11 7 17 5 6 -2
91 -136 189 -298z m3303 236 c176 -8 335 -15 354 -15 25 0 32 -4 28 -14 -5
-13 -226 -358 -506 -791 -96 -148 -97 -150 -139 -156 -43 -5 -82 -32 -82 -56
0 -7 -6 -13 -12 -13 -16 0 -171 29 -174 33 -2 1 -6 133 -9 292 -3 160 -8 382
-10 494 -5 201 -5 204 17 227 22 22 29 23 118 18 52 -2 239 -11 415 -19z m634
-545 c112 -256 225 -513 251 -573 l49 -107 -24 -24 -24 -25 -517 95 c-284 52
-520 94 -525 94 -5 0 -9 13 -9 28 0 16 -9 38 -20 50 -11 12 -20 24 -20 28 0 3
73 119 162 257 230 358 368 573 412 641 l38 60 13 -30 c6 -16 103 -238 214
-494z m-3395 -75 c165 -31 311 -60 324 -65 12 -5 22 -16 22 -24 0 -8 9 -21 19
-28 18 -13 17 -19 -25 -208 -24 -107 -60 -268 -81 -357 -20 -90 -39 -163 -42
-163 -5 1 -531 869 -539 891 -5 14 -1 13 322 -46z m2333 -428 c58 -11 64 -15
82 -50 l19 -38 -97 -150 -98 -150 -7 38 c-3 21 -6 111 -6 201 0 186 -11 171
107 149z m803 -147 c272 -50 499 -90 504 -90 41 0 -21 -15 -489 -115 -143 -30
-289 -62 -325 -70 -36 -8 -162 -35 -280 -60 -118 -25 -234 -50 -257 -55 -23
-6 -44 -10 -47 -10 -3 0 -6 28 -6 61 0 60 2 65 87 198 128 203 119 192 150
180 34 -13 89 5 109 37 12 17 22 22 38 19 11 -3 244 -46 516 -95z m-5375 0 c2
-4 -2 -14 -11 -21 -13 -10 -17 -10 -25 2 -5 8 -9 16 -9 19 0 9 39 9 45 0z
m4455 -364 c0 -41 -2 -44 -32 -50 -17 -3 -33 -5 -34 -3 -4 3 57 97 62 97 2 0
4 -20 4 -44z"/>
<path d="M6150 10660 c-8 -5 -10 -10 -5 -10 6 0 17 5 25 10 8 5 11 10 5 10 -5
0 -17 -5 -25 -10z"/>
<path d="M6080 10630 c-8 -5 -10 -10 -5 -10 6 0 17 5 25 10 8 5 11 10 5 10 -5
0 -17 -5 -25 -10z"/>
<path d="M6000 10595 c-14 -8 -20 -14 -15 -14 6 0 21 6 35 14 14 8 21 14 15
14 -5 0 -21 -6 -35 -14z"/>
<path d="M5920 10560 c-8 -5 -10 -10 -5 -10 6 0 17 5 25 10 8 5 11 10 5 10 -5
0 -17 -5 -25 -10z"/>
<path d="M5850 10530 c-8 -5 -10 -10 -5 -10 6 0 17 5 25 10 8 5 11 10 5 10 -5
0 -17 -5 -25 -10z"/>
<path d="M5660 10326 c0 -2 8 -10 18 -17 15 -13 16 -12 3 4 -13 16 -21 21 -21
13z"/>
<path d="M5488 9233 c6 -2 18 -2 25 0 6 3 1 5 -13 5 -14 0 -19 -2 -12 -5z"/>
<path d="M5548 9223 c6 -2 18 -2 25 0 6 3 1 5 -13 5 -14 0 -19 -2 -12 -5z"/>
<path d="M5598 9213 c6 -2 18 -2 25 0 6 3 1 5 -13 5 -14 0 -19 -2 -12 -5z"/>
<path d="M5653 9203 c9 -2 23 -2 30 0 6 3 -1 5 -18 5 -16 0 -22 -2 -12 -5z"/>
<path d="M5725 9190 c17 -4 41 -8 55 -8 22 0 22 1 -5 8 -16 4 -41 8 -55 8 -22
0 -22 -1 5 -8z"/>
<path d="M5835 9170 c17 -4 41 -8 55 -8 22 0 22 1 -5 8 -16 4 -41 8 -55 8 -22
0 -22 -1 5 -8z"/>
<path d="M5760 7891 c-22 -47 -24 -49 -59 -45 -20 2 -27 1 -16 -2 11 -3 27 -8
35 -11 8 -3 38 -7 65 -9 l50 -3 -39 10 c-22 5 -42 11 -44 13 -2 2 6 23 18 46
12 23 20 44 17 46 -2 2 -14 -18 -27 -45z"/>
<path d="M9061 7809 c-18 -6 -31 -12 -28 -15 8 -8 77 7 77 17 0 11 -4 10 -49
-2z"/>
<path d="M5707 7775 c-24 -50 -20 -58 4 -12 11 22 19 41 17 43 -3 2 -12 -12
-21 -31z"/>
<path d="M5667 7685 c-24 -50 -20 -58 4 -12 11 22 19 41 17 43 -3 2 -12 -12
-21 -31z"/>
<path d="M6472 7705 c10 -11 128 -34 128 -25 0 4 -17 11 -37 14 -21 4 -51 9
-68 13 -16 3 -27 2 -23 -2z"/>
<path d="M8405 7664 l-40 -14 45 6 c25 3 49 9 55 15 13 13 -12 10 -60 -7z"/>
<path d="M5531 7647 c-1 -4 3 -15 8 -25 5 -9 26 -51 46 -92 21 -41 43 -82 50
-90 7 -8 52 -90 101 -182 49 -92 90 -165 92 -163 2 2 -34 75 -81 162 -47 87
-87 163 -89 168 -2 6 7 23 20 39 l22 29 70 -26 c39 -14 69 -23 66 -19 -2 4
-34 18 -70 32 -48 18 -66 29 -66 43 0 24 -28 77 -40 77 -6 0 -10 8 -10 17 0
13 -3 14 -12 5 -21 -21 -74 -15 -91 11 -9 12 -16 19 -16 14z"/>
<path d="M7150 7575 c77 -17 113 -19 90 -6 -8 5 -46 11 -85 15 l-70 5 65 -14z"/>
<path d="M7998 7583 c-16 -2 -28 -9 -28 -14 0 -11 46 -4 85 12 18 7 17 8 -5 7
-14 -1 -37 -3 -52 -5z"/>
<path d="M8950 7573 c0 -13 5 -23 10 -23 13 0 13 11 0 30 -8 12 -10 11 -10 -7z"/>
<path d="M11060 7576 c0 -8 5 -18 10 -21 6 -3 10 3 10 14 0 12 -4 21 -10 21
-5 0 -10 -6 -10 -14z"/>
<path d="M7535 7511 c3 -6 16 -11 28 -12 19 -1 18 -2 -8 -15 -30 -15 -30 -15
15 -8 25 4 64 7 87 6 32 -2 41 1 37 12 -3 9 -20 13 -47 12 -23 0 -59 3 -80 7
-27 6 -37 5 -32 -2z"/>
<path d="M7990 7429 c0 -8 36 -19 63 -19 10 0 16 4 13 9 -7 11 -76 20 -76 10z"/>
<path d="M7200 7408 c-25 -5 -49 -14 -55 -20 -7 -7 -4 -8 10 -5 11 3 37 9 58
13 20 3 37 10 37 15 0 5 -1 9 -2 8 -2 -1 -23 -6 -48 -11z"/>
<path d="M8370 7360 c0 -8 50 -20 83 -20 32 0 14 9 -36 19 -26 4 -47 5 -47 1z"/>
<path d="M9107 7357 c-3 -9 -20 -13 -47 -11 -31 1 -49 -4 -66 -19 -35 -30 -30
-37 27 -37 51 0 51 0 45 -27 -25 -112 -21 -139 93 -653 60 -272 108 -496 106
-498 -1 -1 -150 56 -331 127 l-329 129 -5 45 c-3 24 -12 52 -19 61 -11 14 11
54 168 297 100 155 180 284 176 287 -6 7 17 41 -189 -280 l-179 -278 -41 6
c-22 4 -42 7 -42 8 -1 1 -74 123 -164 271 -177 295 -168 280 -175 274 -2 -3
70 -128 160 -277 91 -150 165 -274 165 -277 0 -8 -47 -55 -56 -55 -4 0 -235
89 -512 198 -488 191 -504 198 -517 230 -8 17 -18 32 -22 32 -4 0 -14 4 -21 8
-12 8 -7 56 14 125 3 9 1 17 -4 17 -5 0 -15 -29 -22 -64 -8 -42 -20 -71 -33
-84 l-22 -20 -155 62 c-214 85 -307 119 -295 107 6 -5 107 -48 225 -94 190
-74 215 -87 218 -108 2 -13 8 -29 12 -34 8 -9 -36 -213 -215 -1010 -26 -115
-71 -313 -99 -439 -29 -126 -57 -231 -63 -233 -16 -6 -17 14 -63 712 -60 908
-81 1199 -86 1204 -8 8 -5 -43 56 -953 33 -495 59 -908 58 -916 -2 -8 -21 19
-42 60 -139 267 -749 1407 -757 1415 -18 18 -8 -3 55 -121 35 -65 184 -346
331 -624 147 -278 301 -567 342 -644 42 -76 71 -141 66 -145 -5 -3 -14 -13
-19 -22 -8 -13 -72 -4 -542 81 -522 94 -551 102 -552 136 0 6 -11 21 -24 33
-27 26 -87 31 -111 11 -13 -11 -26 -3 -78 46 -83 78 -441 419 -544 518 -46 44
-83 77 -83 74 0 -3 35 -39 78 -80 484 -465 601 -582 592 -593 -8 -9 -26 -9
-82 2 -40 7 -80 12 -88 10 -8 -2 17 -9 55 -16 101 -17 105 -19 105 -47 0 -37
51 -84 90 -84 17 0 39 4 49 9 14 8 52 -24 212 -177 679 -650 881 -844 933
-893 55 -52 58 -57 45 -78 -10 -15 -21 -20 -34 -17 -11 3 -282 108 -602 234
-509 200 -588 233 -625 267 -24 22 -205 194 -403 384 -198 189 -328 312 -290
272 39 -40 215 -213 393 -384 305 -295 327 -314 395 -342 40 -17 312 -125 606
-240 l533 -210 19 -42 c20 -48 43 -63 94 -63 26 0 43 7 60 26 14 15 25 30 25
34 0 8 283 16 889 26 l394 7 411 177 c226 98 494 214 596 258 l185 80 26 -19
c38 -27 81 -24 119 8 30 25 32 30 28 81 l-5 55 312 321 c171 177 360 372 419
434 96 99 113 112 142 112 25 0 38 7 51 26 16 25 16 28 0 55 -18 32 -41 -29
347 948 l116 294 0 103 c0 57 -4 104 -8 104 -5 0 -7 -44 -5 -97 l4 -98 -240
-605 c-229 -578 -241 -605 -270 -615 -16 -5 -32 -13 -36 -16 -3 -4 -117 37
-253 91 -136 53 -336 132 -444 175 -158 62 -198 81 -198 96 0 10 -9 26 -19 36
-19 18 -20 44 -30 557 -6 297 -13 542 -17 545 -6 6 5 -1014 11 -1056 3 -18 -4
-26 -31 -39 -34 -16 -36 -16 -142 27 -59 23 -112 48 -119 53 -9 9 -233 1010
-233 1044 0 5 11 13 24 16 30 7 37 34 35 131 -2 77 -3 85 -12 62z m-1220 -723
c274 -108 503 -198 509 -201 7 -2 15 -18 18 -35 3 -18 13 -39 21 -48 17 -18
32 7 -345 -575 -53 -82 -191 -296 -305 -475 -115 -179 -211 -329 -215 -333 -6
-6 -611 97 -614 105 -1 2 -9 19 -19 38 -21 42 -42 -66 187 952 91 405 166 739
166 742 0 2 8 2 18 0 9 -3 26 2 37 10 11 9 25 16 32 16 6 0 235 -88 510 -196z
m903 -355 c113 -44 264 -103 335 -130 72 -28 135 -56 141 -62 12 -14 218 -951
212 -968 -5 -15 -120 -61 -129 -52 -15 15 -762 1258 -767 1276 -2 9 -3 17 -1
17 2 0 96 -36 209 -81z m-156 -60 c35 -57 207 -343 383 -635 l321 -532 -27
-12 c-14 -7 -152 -66 -306 -132 -224 -95 -283 -117 -297 -109 -27 17 -56 13
-78 -9 l-21 -21 -509 93 c-289 52 -510 97 -510 103 0 5 33 60 73 120 39 61
236 364 436 675 l363 565 55 -1 54 0 63 -105z m783 -185 c95 -36 102 -41 108
-70 4 -23 14 -35 35 -44 l30 -12 0 -152 c0 -83 3 -250 7 -372 l6 -220 -49 -21
c-51 -23 -64 -22 -64 4 0 9 -11 66 -25 127 -13 61 -56 257 -95 436 -38 179
-72 336 -75 349 -4 17 -2 22 7 19 7 -3 59 -23 115 -44z m668 -262 c391 -154
430 -171 433 -193 3 -23 -22 -34 -436 -211 -242 -103 -446 -190 -454 -193 -13
-5 -16 44 -21 367 -5 338 -4 375 11 390 10 9 22 15 27 13 6 -2 204 -80 440
-173z m443 -242 c-3 -10 -405 -427 -676 -702 l-166 -168 -33 12 -33 12 -2 208
c-1 114 -2 220 -2 234 -1 26 12 32 274 145 151 65 282 120 290 123 8 2 87 36
175 75 168 73 179 77 173 61z m-4223 -355 c286 -53 522 -101 524 -107 2 -6 13
-20 24 -31 18 -18 22 -54 50 -474 20 -292 27 -457 21 -463 -6 -6 -113 89 -299
267 -160 152 -382 364 -495 472 -410 392 -403 383 -391 413 7 18 16 25 28 22
10 -2 252 -47 538 -99z m3295 -122 c0 -49 3 -152 7 -230 4 -90 2 -143 -4 -143
-5 0 -28 89 -52 198 -23 108 -44 204 -46 212 -3 10 8 21 33 32 62 27 62 27 62
-69z m-70 -143 c22 -102 40 -192 40 -200 0 -8 -47 64 -105 159 -58 96 -104
175 -102 177 4 4 122 51 124 50 1 -1 20 -85 43 -186z m-2270 90 c157 -29 287
-53 289 -56 2 -2 -117 -191 -265 -421 -263 -409 -270 -418 -299 -415 -17 2
-32 6 -34 8 -2 2 -17 204 -34 450 l-30 446 29 23 c16 13 36 22 44 20 8 -2 143
-27 300 -55z m2199 -148 l111 -183 -26 -33 -26 -33 -107 19 c-638 116 -676
124 -679 138 -2 11 85 52 305 147 170 72 309 131 309 130 1 -1 52 -84 113
-185z m-1356 -5 c274 -51 498 -96 498 -101 0 -10 -39 -27 -971 -425 -384 -164
-588 -246 -595 -240 -12 12 -24 -8 235 394 117 182 232 360 256 398 28 42 50
67 61 66 10 0 242 -42 516 -92z m1024 -187 c217 -40 391 -76 395 -83 4 -7 7
-18 5 -25 -1 -8 -78 -46 -172 -87 -93 -40 -354 -153 -580 -250 -225 -98 -430
-181 -455 -185 -25 -4 -313 -11 -640 -15 -327 -4 -599 -8 -605 -9 -5 0 -10 12
-10 29 0 33 -96 -11 1100 499 430 184 440 187 466 172 35 -21 52 -20 80 4 13
10 25 19 26 20 1 0 177 -32 390 -70z"/>
<path d="M7970 7323 c1 -15 90 -148 90 -135 0 17 -72 142 -82 142 -5 0 -8 -3
-8 -7z"/>
<path d="M11072 7310 c0 -14 2 -19 5 -12 2 6 2 18 0 25 -3 6 -5 1 -5 -13z"/>
<path d="M6495 7255 c-55 -13 -104 -21 -108 -18 -4 3 -13 0 -20 -5 -7 -5 -48
-17 -92 -26 -44 -9 -93 -20 -110 -25 -58 -18 -4 -11 112 14 l117 26 94 -37
c51 -20 95 -34 98 -32 2 3 -29 17 -68 33 -40 15 -77 31 -81 35 -8 7 117 40
149 40 8 0 14 5 14 10 0 6 -1 10 -2 9 -2 0 -48 -11 -103 -24z"/>
<path d="M9400 7172 c8 -5 33 -12 55 -16 22 -4 53 -9 69 -12 17 -4 26 -2 22 4
-3 5 -25 12 -48 16 -24 4 -59 9 -78 12 -24 3 -30 2 -20 -4z"/>
<path d="M9872 7085 c6 -6 1154 -215 1182 -215 11 0 17 2 15 4 -4 4 -307 60
-971 180 -193 35 -237 41 -226 31z"/>
<path d="M5865 7020 c9 -16 18 -30 21 -30 2 0 -2 14 -11 30 -9 17 -18 30 -21
30 -2 0 2 -13 11 -30z"/>
<path d="M5186 6625 c-9 -26 -7 -32 5 -12 6 10 9 21 6 23 -2 3 -7 -2 -11 -11z"/>
<path d="M5132 6505 c-17 -37 -14 -45 4 -12 9 16 14 31 11 33 -2 2 -9 -7 -15
-21z"/>
<path d="M5025 6269 c-4 -6 -5 -12 -2 -15 2 -3 7 2 10 11 7 17 1 20 -8 4z"/>
<path d="M4836 5855 c-9 -26 -7 -32 5 -12 6 10 9 21 6 23 -2 3 -7 -2 -11 -11z"/>
<path d="M4968 5423 c7 -3 16 -2 19 1 4 3 -2 6 -13 5 -11 0 -14 -3 -6 -6z"/>
<path d="M5018 5413 c7 -3 16 -2 19 1 4 3 -2 6 -13 5 -11 0 -14 -3 -6 -6z"/>
<path d="M5078 5403 c7 -3 16 -2 19 1 4 3 -2 6 -13 5 -11 0 -14 -3 -6 -6z"/>
<path d="M5128 5393 c6 -2 18 -2 25 0 6 3 1 5 -13 5 -14 0 -19 -2 -12 -5z"/>
<path d="M5178 5383 c6 -2 18 -2 25 0 6 3 1 5 -13 5 -14 0 -19 -2 -12 -5z"/>
<path d="M5238 5373 c6 -2 18 -2 25 0 6 3 1 5 -13 5 -14 0 -19 -2 -12 -5z"/>
<path d="M4805 5320 c27 -27 51 -50 54 -50 3 0 -17 23 -44 50 -27 28 -51 50
-54 50 -3 0 17 -22 44 -50z"/>
<path d="M5288 5363 c6 -2 18 -2 25 0 6 3 1 5 -13 5 -14 0 -19 -2 -12 -5z"/>
<path d="M5343 5353 c9 -2 23 -2 30 0 6 3 -1 5 -18 5 -16 0 -22 -2 -12 -5z"/>
</g>
</svg>
